<svg xmlns="http://www.w3.org/2000/svg" width="131" height="130" viewBox="0 0 131 130" fill="none">
  <path d="M33.4878 0C29.019 0 25.3628 3.65625 25.3628 8.125V121.875C25.3628 126.344 29.019 130 33.4878 130H114.738C119.207 130 122.863 126.344 122.863 121.875V32.5L90.3628 0H33.4878Z" fill="#E2E5E7"/>
  <path d="M98.4878 32.5H122.863L90.3628 0V24.375C90.3628 28.8438 94.019 32.5 98.4878 32.5Z" fill="#B0B7BD"/>
  <path d="M122.863 56.875L98.4878 32.5H122.863V56.875Z" fill="#CAD1D8"/>
  <path d="M106.613 105.625C106.613 107.859 104.785 109.688 102.55 109.688H13.1753C10.9409 109.688 9.11279 107.859 9.11279 105.625V65C9.11279 62.7656 10.9409 60.9375 13.1753 60.9375H102.55C104.785 60.9375 106.613 62.7656 106.613 65V105.625Z" fill="#B0B7BD"/>
  <path d="M37.6356 82.8222L43.2865 75.7412C44.9765 73.5312 48.259 76.3547 46.4065 78.4672C44.4606 80.7747 42.4131 83.2772 40.4631 85.8406L47.089 94.0916C48.8765 96.5291 45.3056 98.865 43.5506 96.46L37.5706 88.7941L31.6922 96.6266C30.0347 98.995 26.3622 96.3341 28.2147 94.1241L34.7431 85.8406C32.6956 83.2731 30.7131 80.7747 28.7347 78.4672C26.6912 76.0297 30.4897 73.5312 31.9847 75.8103L37.6356 82.8222Z" fill="white"/>
  <path d="M51.0988 76.9722C51.0988 75.8997 52.0088 74.9897 53.1463 74.9897C54.1863 74.9897 55.0638 75.9038 55.0638 76.9722V93.2466H63.8997C67.0806 93.2466 67.1497 97.5 63.8997 97.5H53.1503C52.0128 97.5 51.1028 96.6916 51.1028 95.5216V76.9722H51.0988Z" fill="white"/>
  <path d="M70.0584 79.8972C70.8059 73.5922 80.3203 72.4588 84.8053 75.9038C87.0153 77.6872 84.6753 80.5147 82.7253 79.0847C80.3203 77.5612 74.8644 76.8463 74.1819 80.2181C73.3044 85.5481 87.4338 82.4972 87.2063 91.1381C86.9788 99.3891 75.0269 99.58 70.5419 95.8791C69.4653 95.0016 69.5019 93.5756 70.0869 92.6941C70.9319 91.8531 71.8703 91.5606 72.9794 92.4706C75.6403 94.2866 82.4978 95.6516 82.9813 91.0366C82.5628 86.2347 69.0509 89.1231 70.0584 79.8972Z" fill="white"/>
  <path d="M102.55 109.688H25.3628V113.75H102.55C104.785 113.75 106.613 111.922 106.613 109.688V105.625C106.613 107.859 104.785 109.688 102.55 109.688Z" fill="#CAD1D8"/>
</svg>